<?xml version="1.0" ?><svg style="enable-background:new 0 0 512 512;" version="1.1" viewBox="0 0 512 512" xml:space="preserve" xmlns="http://www.w3.org/2000/svg" xmlns:xlink="http://www.w3.org/1999/xlink"><style type="text/css">
	.st0{fill:#C8C6CC;}
	.st1{fill:#78CBED;}
	.st2{fill:#34B6E2;}
	.st3{fill:#FFFFFF;}
	.st4{fill:#F6D6C5;}
	.st5{fill:#C76D33;}
	.st6{fill:#DF8A57;}
	.st7{fill:#FFD6BC;}
	.st8{fill:#F85647;}
	.st9{fill:#FFB88C;}
	.st10{fill:#FF97C1;}
	.st11{fill:#00C755;}
	.st12{fill:#55D47B;}
	.st13{fill:#FF9A5C;}
	.st14{fill:#F54432;}
	.st15{fill:#948EA3;}
	.st16{fill:#FD7A6E;}
	.st17{fill:#77728D;}
	.st18{fill:none;}
	.st19{fill:#FF7E27;}
	.st20{fill:#EAAA83;}
	.st21{fill:#E83826;}
</style><g id="Layer_1"/><g id="Layer_2"/><g id="Layer_3"><g><g><g><g><path class="st4" d="M109.138,446.098l60.812-60.412l-38.56-39.36l-60.812,60.412c-13.845-12.853-35.025-13-48.123,0.011       c-13.506,13.417-13.277,35.702,0.511,49.776c7.103,7.251,16.419,10.877,25.63,10.884c-0.119,9.274,3.356,18.703,10.46,25.954       c13.788,14.073,35.913,14.606,49.419,1.189C121.572,481.541,121.713,460.212,109.138,446.098z"/><path class="st5" d="M249.051,84.636c-58.625,59.822-85.258,134.767-72.035,188.513l-58.669,59.868l62.397,63.672l58.67-59.868       c52.67,13.493,126.115-13.684,184.74-73.506c75.871-77.421,98.179-180.181,49.826-229.522       C425.626-15.548,324.922,7.216,249.051,84.636z"/></g><g><path class="st4" d="M442.293,405.861l-59.203-62.054l-38.572,39.348l59.203,62.054c-12.596,14.128-12.74,35.741,0.011,49.105       c13.148,13.781,34.988,13.548,48.779-0.521c7.106-7.248,10.66-16.754,10.666-26.153c9.089,0.121,18.329-3.425,25.435-10.673       c13.792-14.069,14.314-36.647,1.165-50.428C477.027,393.174,456.125,393.03,442.293,405.861z"/><path class="st6" d="M88.066,263.091c58.625,59.822,132.07,86.999,184.74,73.506l58.669,59.868l62.397-63.672l-58.67-59.868       c13.223-53.746-13.41-128.691-72.035-188.513C187.297,6.992,86.593-15.772,38.24,33.569S12.195,185.67,88.066,263.091z"/></g></g><ellipse cx="134.311" cy="106.017" rx="10.204" ry="10.098"/><ellipse cx="154.719" cy="142.225" rx="10.204" ry="10.098"/><ellipse cx="113.903" cy="142.225" rx="10.204" ry="10.098"/><ellipse cx="381.324" cy="106.017" rx="10.204" ry="10.098"/><ellipse cx="360.915" cy="142.225" rx="10.204" ry="10.098"/><ellipse cx="401.732" cy="142.225" rx="10.204" ry="10.098"/></g><g><path class="st3" d="M187.93,285.155c-0.392,0-0.788-0.031-1.188-0.094c-6.268-0.997-17.363-5.562-28.957-11.913     c-3.633-1.99-4.965-6.548-2.975-10.181c1.99-3.632,6.548-4.964,10.181-2.975c10.842,5.939,20.334,9.654,24.107,10.254     c4.091,0.65,6.879,4.494,6.229,8.585C194.74,282.524,191.552,285.155,187.93,285.155z"/></g><g><path class="st3" d="M136.155,257.292c-1.671,0-3.352-0.555-4.746-1.696c-19.639-16.072-31.225-35.903-34.308-41.598     c-1.972-3.643-0.618-8.194,3.025-10.167c3.643-1.971,8.195-0.617,10.167,3.025c5.674,10.481,16.696,25.739,30.617,37.131     c3.206,2.624,3.677,7.349,1.054,10.554C140.481,256.353,138.327,257.292,136.155,257.292z"/></g></g></g><g id="Layer_4"/><g id="Layer_5"/><g id="Layer_6"/><g id="Layer_7"/><g id="Layer_8"/><g id="Layer_9"/><g id="Layer_10"/><g id="Layer_11"/><g id="Layer_12"/><g id="Layer_13"/><g id="Layer_14"/><g id="Layer_15"/><g id="Layer_16"/><g id="Layer_17"/><g id="Layer_18"/><g id="Layer_19"/><g id="Layer_20"/><g id="Layer_21"/><g id="Layer_22"/><g id="Layer_23"/><g id="Layer_24"/><g id="Layer_25"/><g id="Layer_26"/><g id="Layer_27"/><g id="Layer_28"/><g id="Layer_29"/><g id="Layer_30"/><g id="Layer_31"/><g id="Layer_32"/><g id="Layer_33"/><g id="Layer_34"/><g id="Layer_35"/><g id="Layer_36"/><g id="Layer_37"/><g id="Layer_38"/><g id="Layer_39"/><g id="Layer_40"/><g id="Layer_41"/><g id="Layer_42"/><g id="Layer_43"/><g id="Layer_44"/><g id="Layer_45"/><g id="Layer_46"/><g id="Layer_47"/><g id="Layer_48"/><g id="Layer_49"/><g id="Layer_50"><g><path d="M443.04,395.779l-8.592-9.005c-2.859-2.997-7.606-3.108-10.604-0.249c-2.997,2.859-3.108,7.606-0.249,10.604    l13.272,13.911c2.831,2.967,7.521,3.11,10.527,0.321c10.895-10.105,27.127-9.948,36.958,0.356    c10.366,10.866,9.875,28.81-1.095,40.001c-5.422,5.532-12.535,8.537-19.979,8.424c-2.025-0.029-3.938,0.751-5.366,2.159    c-1.428,1.408-2.232,3.33-2.234,5.335c-0.005,7.882-3.032,15.307-8.522,20.908c-5.394,5.503-12.457,8.508-19.81,8.456    c-6.936-0.047-13.395-2.839-18.188-7.862c-10.016-10.498-9.945-27.602,0.161-38.937c2.601-2.917,2.526-7.341-0.172-10.168    l-54.196-56.805l28.065-28.63l15.713,16.47c2.861,2.997,7.608,3.108,10.604,0.25c2.997-2.859,3.108-7.607,0.25-10.604    l-16.069-16.843l5.713-5.83c2.857-2.917,2.857-7.583-0.001-10.499l-18.242-18.612c17.133-11.409,33.423-24.956,48.522-40.368    c37.67-38.44,63.763-84.235,73.47-128.948c9.965-45.899,1.57-85.345-23.64-111.07C430.847-20.944,333.856-3.7,256.236,67.289    C178.563-3.913,81.463-21.252,32.883,28.321C-4.418,66.386-3.944,135.216,34.092,203.673c2.013,3.621,6.579,4.924,10.199,2.914    c3.621-2.012,4.925-6.578,2.914-10.199C12.471,133.876,11.056,72.027,43.597,38.819c20.786-21.211,53.321-28.598,91.616-20.805    c39.365,8.012,80.5,31.079,115.832,64.954c2.312,2.213,4.588,4.463,6.769,6.691c54.868,55.991,83.041,128.921,70.104,181.478    c-0.621,2.522,0.108,5.187,1.926,7.042l53.525,54.611l-41.583,42.439l-2.623,2.676c-0.004,0.004-0.007,0.008-0.011,0.012    l-7.671,7.828l-50.045-51.057c-0.05-0.051-0.105-0.095-0.156-0.144c-0.109-0.106-0.219-0.21-0.335-0.309    c-0.084-0.072-0.17-0.138-0.256-0.205c-0.105-0.082-0.21-0.164-0.32-0.24c-0.097-0.068-0.197-0.131-0.297-0.194    c-0.106-0.067-0.212-0.133-0.322-0.195c-0.103-0.058-0.207-0.111-0.312-0.164c-0.114-0.057-0.229-0.113-0.346-0.165    c-0.102-0.045-0.205-0.085-0.308-0.125c-0.126-0.049-0.253-0.096-0.382-0.138c-0.099-0.032-0.198-0.06-0.298-0.088    c-0.135-0.038-0.271-0.074-0.409-0.104c-0.101-0.022-0.202-0.04-0.304-0.058c-0.136-0.024-0.273-0.047-0.411-0.064    c-0.114-0.014-0.227-0.022-0.341-0.03c-0.126-0.009-0.251-0.019-0.378-0.022c-0.139-0.003-0.277,0.001-0.415,0.005    c-0.08,0.003-0.159-0.002-0.24,0.003c-6.852,0.432-13.559,0.317-19.931-0.345c-0.258-0.027-0.517-0.04-0.775-0.04h-0.03    c-0.21,0-0.42,0.009-0.629,0.026c-5.513,0.464-11.315,0.517-17.264,0.157c-28.474-1.662-59.5-12.41-89.725-31.083    c-19.121-11.813-37.23-26.39-53.826-43.329c-9.943-10.146-19.159-20.97-27.392-32.172c-2.453-3.338-7.147-4.055-10.485-1.602    c-3.338,2.453-4.055,7.147-1.602,10.485c8.65,11.771,18.329,23.139,28.765,33.788c15.156,15.47,31.536,29.076,48.79,40.545    l-18.508,18.887c-2.858,2.916-2.858,7.582-0.001,10.498l7.826,7.987l-50.833,50.498c-16.588-11.011-38.61-9.438-52.817,4.675    c-16.397,16.29-16.2,43.361,0.439,60.345c6.606,6.743,14.933,11.074,23.957,12.561c1.345,9.097,5.529,17.536,12.133,24.277    c8.24,8.411,19.151,13.085,30.725,13.164c0.098,0,0.194,0.001,0.292,0.001c11.006,0,21.312-4.221,29.045-11.904    c14.191-14.098,16.032-36.24,5.299-53.059l50.823-50.489l5.501,5.614c1.411,1.439,3.342,2.25,5.357,2.25    c2.015,0,3.946-0.812,5.356-2.251l53.453-54.554c1.715,0.063,3.423,0.104,5.115,0.104c3.442,0,6.824-0.139,10.128-0.398    c4.161,0.41,8.431,0.621,12.778,0.621c1.822,0,3.661-0.049,5.506-0.121l53.047,54.119c1.41,1.439,3.34,2.25,5.355,2.25    c0,0,0,0,0,0c2.015,0,3.945-0.811,5.355-2.249l7.61-7.767l49.448,51.829c-10.86,16.829-9.375,39.268,4.412,53.719    c7.624,7.991,17.901,12.433,28.939,12.507c0.096,0,0.19,0.001,0.286,0.001c11.375,0,22.14-4.595,30.337-12.957    c6.603-6.736,10.835-15.221,12.268-24.403c8.941-1.399,17.224-5.681,23.833-12.424c16.569-16.902,17.124-44.202,1.236-60.855    C481.348,386.838,459.618,384.903,443.04,395.779z M333.152,178.316c-13.168-35.162-35.515-69.449-64.622-99.151    c-0.476-0.486-0.972-0.975-1.456-1.463c34.006-30.903,72.832-51.936,110.055-59.486c38.241-7.756,70.734-0.361,91.493,20.824    c21.559,22,28.554,56.587,19.695,97.389c-9.116,41.988-33.807,85.184-69.526,121.633c-15.073,15.385-31.37,28.797-48.51,39.948    l-26.865-27.41C349.095,243.278,345.573,211.481,333.152,178.316z M103.853,440.777c-2.827,2.808-2.964,7.335-0.314,10.31    c10.017,11.243,9.864,27.998-0.349,38.144c-4.946,4.913-11.539,7.58-18.664,7.544c-7.547-0.051-14.69-3.127-20.112-8.661    c-5.462-5.576-8.417-12.896-8.318-20.609c0.025-2.005-0.752-3.937-2.161-5.364s-3.329-2.231-5.333-2.232    c-7.628-0.005-14.829-3.071-20.278-8.632c-10.892-11.118-11.153-28.706-0.583-39.207c5.058-5.024,11.695-7.532,18.444-7.532    c6.826,0,13.766,2.568,19.291,7.697c2.949,2.738,7.533,2.661,10.388-0.176l55.454-55.089l28.063,28.645L103.853,440.777z     M180.74,385.974l-37.138-37.899l-6.855-6.997c-0.006-0.006-0.012-0.011-0.018-0.016l-7.879-8.041l15.67-15.99    c25.303,14.878,51.166,24.567,75.868,28.478L180.74,385.974z"/><ellipse cx="134.311" cy="106.017" rx="10.204" ry="10.098"/><ellipse cx="154.719" cy="142.225" rx="10.204" ry="10.098"/><ellipse cx="113.903" cy="142.225" rx="10.204" ry="10.098"/><ellipse cx="381.324" cy="106.017" rx="10.204" ry="10.098"/><ellipse cx="360.915" cy="142.225" rx="10.204" ry="10.098"/><ellipse cx="401.732" cy="142.225" rx="10.204" ry="10.098"/><path d="M154.811,262.968c-1.99,3.632-0.658,8.191,2.975,10.181c11.594,6.351,22.689,10.916,28.957,11.913    c0.399,0.063,0.795,0.094,1.188,0.094c3.623,0,6.811-2.631,7.397-6.323c0.651-4.091-2.138-7.935-6.229-8.585    c-3.773-0.6-13.265-4.315-24.107-10.254C161.359,258.003,156.801,259.335,154.811,262.968z"/><path d="M97.102,213.998c3.083,5.695,14.669,25.525,34.308,41.598c1.394,1.141,3.075,1.696,4.746,1.696    c2.172,0,4.326-0.938,5.809-2.75c2.623-3.206,2.151-7.931-1.054-10.554c-13.92-11.392-24.943-26.65-30.617-37.131    c-1.972-3.642-6.523-4.996-10.167-3.025C96.484,205.804,95.13,210.355,97.102,213.998z"/></g></g></svg>