<?xml version="1.0" encoding="iso-8859-1"?>
<!-- Uploaded to: SVG Repo, www.svgrepo.com, Generator: SVG Repo Mixer Tools -->
<!DOCTYPE svg PUBLIC "-//W3C//DTD SVG 1.1//EN" "http://www.w3.org/Graphics/SVG/1.1/DTD/svg11.dtd">
<svg fill="#000000" height="800px" width="800px" version="1.1" id="Capa_1" xmlns="http://www.w3.org/2000/svg" xmlns:xlink="http://www.w3.org/1999/xlink" 
	 viewBox="0 0 224.132 224.132" xml:space="preserve">
<g>
	<path d="M147.822,113.252c5.152-1.229,8.653-3.604,11.742-5.7c0.777-0.527,1.579-1.073,2.442-1.619
		c19.042-12.07,32.321-38.276,32.293-63.73l0.002-1.994c0.022-10.731,0.05-24.087-8.728-34.217
		c-5.03-5.806-10.233-6.377-13.716-5.83c-8.464,1.325-13.496,10.356-15.741,15.62c-1.817,4.257-2.887,8.641-3.922,12.88
		c-1.476,6.049-2.869,11.761-6.177,15.723c-0.363,0.403-1.025,0.956-1.796,1.518c0.351-1.684,0.786-3.429,1.1-4.687
		c1.004-4.023,1.952-7.824,1.793-11.124c-0.367-7.632-4.722-15.99-11.094-21.294c-4.857-4.042-10.481-5.869-15.818-5.147
		c-5.645,0.764-10.29,3.482-13.435,7.863c-7.857,10.948-4.341,29.09-2.015,41.096c0.422,2.176,0.786,4.056,0.943,5.26
		c1.287,9.853-0.3,16.307-1.939,17.179c-1.323,0.704-3.957,0.683-5.323-0.076c-0.469-1.056-0.015-4.572,0.207-6.282l0.061-0.471
		c0.092-0.718,0.222-1.576,0.367-2.536c1.345-8.919,3.378-22.398-4.187-29.184c-2.536-2.275-7.06-4.592-14.198-2.707
		c-9.199,2.429-11.488,10.852-12.855,15.884c-0.45,1.655-1.203,4.426-1.761,4.954c-0.001,0-0.126,0.058-0.458,0.098
		c-2.934,0.337-6.154-0.521-10.055-1.687c-0.529-0.158-1.146-0.373-1.82-0.604c-4.403-1.513-10.432-3.583-15.777-1.362
		c-4.293,1.781-7.099,5.295-7.9,9.893c-2.349,13.459,14.166,32.681,16.478,34.786c6.696,6.098,14.308,13.233,19.877,20.756
		c3.303,4.461,3.514,8.224,0.941,16.779c-3.415,11.366-6.968,22.518-10.56,33.143c-0.268,0.79-0.549,1.607-0.839,2.448
		c-3.127,9.082-7.018,20.384-5.237,30.658c0.894,5.157,3.377,10.68,7.137,15.15c0.396,0.749,0.926,1.444,1.589,2.048
		c1.289,1.173,2.644,2.205,4.052,3.097c2.43,1.655,5.149,2.885,8.118,3.506c0.127,0.026,0.256,0.05,0.384,0.07
		c2.072,0.483,4.195,0.724,6.335,0.724c8.629,0,17.56-3.907,24.796-11.532c6.08-6.407,9.36-13.608,12.533-20.572
		c1.997-4.382,3.883-8.52,6.385-12.268c4.313-6.459,8.306-8.697,17.09-9.581c1.124-0.112,2.343-0.171,3.634-0.232
		c3.767-0.179,8.039-0.382,12.317-2.067c6.794-2.677,13.321-7.906,15.814-10.032c4.015-3.427,10.83-10.579,11.353-19.973
		c0.308-5.525-1.684-10.742-5.759-15.089c-11.72-12.503-29.321-5.269-35.951-2.545c-0.595,0.244-1.094,0.432-1.513,0.574
		c0.161-1.449,0.76-3.247,1.627-4.265C141.879,115.114,143.888,114.19,147.822,113.252z M166.767,32.218
		c0.932-3.817,1.812-7.424,3.146-10.547c1.436-3.367,2.996-5.403,3.926-6.286c0.117,0.117,0.25,0.259,0.398,0.431
		c5.102,5.889,5.083,15.279,5.064,24.362l-0.002,2.042c0.015,12.778-4.22,26.034-11.033,36.42l-9.803-25.819
		C163.304,46.405,165.139,38.894,166.767,32.218z M150.412,59.793l10.566,27.829c-2.201,2.177-4.543,4.082-7.002,5.641
		c-1,0.634-1.932,1.265-2.836,1.878c-2.6,1.764-4.316,2.93-6.797,3.521c-1.962,0.468-4.027,1.045-6.072,1.865l-20.817-18.778
		c3.854-6.649,4.062-15.774,3.456-22.675l8.549-3.563c0.384,1.144,0.913,2.236,1.642,3.254c1.968,2.749,4.982,4.334,8.489,4.464
		C143.316,63.358,147.184,61.756,150.412,59.793z M118.954,20.26c0.538-0.75,1.306-1.48,3.257-1.744
		c1.12-0.154,2.651,0.511,4.213,1.81c3.09,2.572,5.544,7.08,5.708,10.486c0.051,1.098-0.801,4.514-1.364,6.774
		c-0.583,2.34-1.189,4.78-1.602,7.21l-9.853,4.108C117.771,40.905,115.011,25.754,118.954,20.26z M44.987,65.409
		c1.334,0.342,2.927,0.89,3.875,1.215c0.888,0.306,1.703,0.583,2.401,0.791c4.154,1.241,9.846,2.945,16.081,2.212
		c10.954-1.274,13.56-10.864,14.959-16.017c0.758-2.788,1.447-5.112,2.209-5.313c0.183-0.049,0.342-0.085,0.48-0.111
		c0.689,2.236,0.437,7.356-0.756,15.26c-0.164,1.086-0.31,2.058-0.414,2.869l-0.059,0.453c-0.217,1.677-0.487,3.791-0.509,6.07
		L57.152,85.138c-0.17-0.155-0.347-0.319-0.517-0.474C53.424,81.739,46.241,70.753,44.987,65.409z M64.996,92.499l20.59-9.703
		c1.175,1.965,2.893,3.76,5.38,5.19c5.56,3.2,13.327,3.425,19.172,0.628l19.588,17.67c-0.164,0.179-0.33,0.354-0.489,0.541
		c-1.754,2.059-3.108,4.609-4.001,7.322L82.84,115.92c-0.886-2.73-2.283-5.515-4.373-8.337
		C74.472,102.188,69.745,97.136,64.996,92.499z M92.245,202.275c-5.499,5.795-13.683,9.233-20.548,5.003
		c-3.109-2.23-5.552-6.552-6.202-10.302c-1.078-6.22,1.951-15.386,4.348-22.358l26.212,22.735
		C94.925,199.1,93.686,200.757,92.245,202.275z M102.009,185.809c-0.381,0.835-0.759,1.662-1.139,2.482l-27.581-23.923
		c1.12-3.397,2.234-6.83,3.34-10.306l32.49,18.068C106.187,176.665,104.06,181.309,102.009,185.809z M115.531,164.254
		l-35.857-19.941c0.686-2.229,1.37-4.459,2.045-6.706c1.104-3.671,2.119-7.604,2.35-11.728l40.111-1.679
		c0.107,0.8,0.264,1.581,0.477,2.331c1.417,5.001,4.436,7.374,6.721,8.483c1.875,0.911,3.796,1.265,5.684,1.268l-2.733,19.39
		C127.3,156.725,121.126,158.96,115.531,164.254z M165.55,133.045c1.629,1.736,1.777,3.048,1.725,3.996
		c-0.151,2.706-2.493,6.306-6.112,9.395c-3.935,3.355-8.37,6.225-11.574,7.487c-1.385,0.546-3.134,0.769-5.042,0.901l2.992-21.226
		C156.887,129.936,162.476,129.768,165.55,133.045z"/>
</g>
</svg>