<?xml version="1.0" ?><svg xmlns="http://www.w3.org/2000/svg" xmlns:xlink="http://www.w3.org/1999/xlink" version="1.1" viewBox="0 0 512 512" style="enable-background:new 0 0 512 512;" xml:space="preserve"><g id="_x31_7_x2C__Holi_x2C__cultures_x2C__festival_x2C__holiday_x2C__colors_x2C__powder"><g><g><path style="fill:#E6C34F;" d="M459.556,291.223c21.839,59.999-216.547,54.799-195.107,0c1.622-5.207,4.978-10.407,9.89-14.31     c-1.561-10.349,2.431-21.119,11-27.91c-1.593-10.566,2.575-21.224,10.99-27.91c-1.195-8.046,0.918-15.875,5.35-22v-0.01     c1.62-2.25,3.53-4.23,5.65-5.91c-1.598-10.611,2.616-21.266,11-27.91c-3.637-24.118,21.782-42.472,43.679-30.96     c21.986-11.56,47.295,6.979,43.679,30.96c8.425,6.691,12.579,17.359,10.99,27.91c8.337,6.607,12.609,17.229,11,27.92     c8.549,6.792,12.55,17.49,11,27.91c8.399,6.673,12.586,17.325,10.99,27.91C454.48,280.728,457.895,285.889,459.556,291.223z"/><path style="fill:#73B54D;" d="M247.567,291.223c21.839,59.999-216.547,54.799-195.107,0c1.622-5.207,4.978-10.407,9.89-14.31     c-1.561-10.349,2.431-21.119,11-27.91c-1.593-10.566,2.575-21.224,10.99-27.91c-1.195-8.046,0.918-15.875,5.35-22v-0.01     c1.62-2.25,3.53-4.23,5.65-5.91c-1.598-10.611,2.616-21.266,11-27.91c-3.637-24.118,21.782-42.472,43.679-30.96     c21.986-11.56,47.295,6.979,43.679,30.96c8.425,6.691,12.579,17.359,10.99,27.91c8.337,6.607,12.609,17.229,11,27.92     c8.549,6.792,12.55,17.49,11,27.91c8.399,6.673,12.586,17.325,10.99,27.91C242.491,280.728,245.906,285.889,247.567,291.223z"/><path style="fill:#D25267;" d="M353.549,291.223c21.839,59.999-216.547,54.799-195.107,0c1.622-5.207,4.978-10.407,9.89-14.31     c-1.561-10.349,2.431-21.119,11-27.91c-1.593-10.566,2.575-21.224,10.99-27.91c-1.195-8.046,0.918-15.875,5.35-22v-0.01     c1.62-2.25,3.53-4.23,5.65-5.91c-1.598-10.611,2.616-21.266,11-27.91c-3.637-24.118,21.782-42.472,43.679-30.96     c21.986-11.56,47.295,6.979,43.679,30.96c8.425,6.691,12.579,17.359,10.99,27.91c8.337,6.607,12.609,17.229,11,27.92     c8.549,6.792,12.55,17.49,11,27.91c8.399,6.673,12.586,17.325,10.99,27.91C348.473,280.728,351.887,285.889,353.549,291.223z"/><polygon style="fill:#EBF0FA;" points="111.002,291.223 129.002,306.223 121.002,321.223 70.669,331.023 16.003,321.223      6.004,291.223 52.453,291.223    "/><polygon style="fill:#EBF0FA;" points="505.997,291.223 495.997,321.223 439.664,331.023 390.998,321.223 385.665,304.356      400.998,291.223 459.547,291.223    "/><path style="fill:#D9E2F5;" d="M495.997,321.223l-1.39,4.16c-11.11,33.35-42.319,55.839-77.469,55.839H312.139l78.859-59.999     H495.997z"/><path style="fill:#D9E2F5;" d="M199.861,381.222H94.862c-35.15,0-66.359-22.49-77.469-55.839l-1.39-4.16h104.999L199.861,381.222     z"/><path style="fill:#D9E2F5;" d="M400.998,291.223l-10,30l-134.978,14.8l-135.018-14.8l-10-30     C141.556,291.223,369.739,291.223,400.998,291.223z"/><path style="fill:#CDD8F7;" d="M390.998,321.223l-1.39,4.17c-11.11,33.34-42.319,55.829-77.469,55.829h-7.28h-97.719h-7.28     c-35.15,0-66.359-22.49-77.469-55.829l-1.39-4.17h14.67h240.657H390.998z"/><path d="M119.537,239.759l5-5c1.953-1.952,1.953-5.118,0-7.07c-1.951-1.953-5.119-1.953-7.07,0l-5,5     c-1.953,1.952-1.953,5.118,0,7.07C114.418,241.712,117.586,241.712,119.537,239.759z"/><path d="M157.466,229.759c0.976,0.977,2.256,1.465,3.535,1.465c4.407,0,6.701-5.371,3.535-8.535l-5-5     c-1.951-1.953-5.119-1.953-7.07,0c-1.953,1.952-1.953,5.118,0,7.07L157.466,229.759z"/><path d="M139.537,194.76l5-5c1.953-1.952,1.953-5.118,0-7.07c-1.951-1.953-5.119-1.953-7.07,0l-5,5     c-1.953,1.952-1.953,5.118,0,7.07C134.418,196.713,137.586,196.713,139.537,194.76z"/><path d="M505.997,286.223H462.98c-1.901-4.294-4.646-8.172-8.071-11.378c0.714-10.457-3.327-20.74-10.999-27.912     c0.714-10.482-3.319-20.721-10.994-27.91c0.723-10.745-3.502-20.9-10.997-27.917c0.715-10.485-3.322-20.733-10.999-27.913     c1.779-26.143-24.931-44.933-48.929-34.434c-23.895-10.473-50.727,8.106-48.933,34.437c-1.489,1.394-2.845,2.917-4.065,4.543     c-1.221-1.626-2.577-3.149-4.063-4.537c1.778-25.958-24.705-45.039-48.934-34.443c-23.986-10.498-50.712,8.278-48.927,34.435     c-1.487,1.391-2.844,2.914-4.065,4.54c-1.219-1.624-2.574-3.146-4.062-4.538c1.786-26.208-24.913-44.942-48.934-34.437     c-24.033-10.492-50.707,8.3-48.928,34.434c-7.629,7.136-11.719,17.362-10.999,27.913c-7.481,7.004-11.72,17.152-10.997,27.917     c-7.67,7.184-11.709,17.417-10.994,27.91c-7.656,7.158-11.715,17.435-10.999,27.912c-3.424,3.205-6.168,7.081-8.071,11.378H6.004     c-3.409,0-5.823,3.345-4.743,6.581l11.389,34.159c11.808,35.445,44.848,59.259,82.214,59.259c10.916,0,311.36,0,322.275,0     c37.366,0,70.405-23.814,82.212-59.255l11.39-34.163C511.819,289.572,509.409,286.223,505.997,286.223z M492.391,316.223h-94.455     l6.666-20c21.675,0,75.697,0,94.458,0L492.391,316.223z M199.861,376.222c-32.197,0-60.755-19.989-71.869-49.999h256.016     c-11.114,30.01-39.672,49.999-71.869,49.999H199.861z M394.061,296.223l-6.666,20H124.605l-6.666-20     C139.717,296.223,380.659,296.223,394.061,296.223z M321.419,169.18c1.401-1.113,2.101-2.891,1.834-4.66     c-3.03-20.088,18.143-35.402,36.408-25.79c1.457,0.769,3.199,0.766,4.658-0.001c18.344-9.656,39.409,5.859,36.405,25.791     c-0.267,1.771,0.435,3.551,1.839,4.664c6.91,5.475,10.505,14.325,9.161,23.246c-0.267,1.77,0.433,3.547,1.834,4.66     c6.854,5.446,10.506,14.234,9.165,23.27c-0.263,1.767,0.437,3.538,1.835,4.649c6.957,5.526,10.492,14.389,9.156,23.25     c-0.267,1.771,0.435,3.551,1.839,4.664c6.992,5.541,10.486,14.458,9.161,23.245c-0.267,1.77,0.433,3.547,1.834,4.66     c1.941,1.542,3.625,3.369,5.021,5.395c-9.276,0-84.687,0-94.587,0c-1.904-4.302-4.649-8.18-8.07-11.381     c0.712-10.464-3.308-20.71-10.994-27.909c0.704-10.482-3.318-20.72-10.997-27.908c0.715-10.488-3.317-20.738-11-27.921     c0.297-4.376-0.238-8.787-1.57-12.979C315.982,174.649,318.401,171.578,321.419,169.18z M215.426,169.184     c1.404-1.113,2.106-2.894,1.839-4.665c-3.023-20.02,18.135-35.42,36.405-25.79c1.459,0.768,3.201,0.768,4.66,0     c18.376-9.683,39.407,5.893,36.405,25.79c-0.267,1.771,0.434,3.551,1.837,4.664c6.896,5.443,10.491,14.372,9.153,23.248     c-0.267,1.771,0.435,3.55,1.839,4.663c6.978,5.529,10.492,14.41,9.161,23.257c-0.267,1.77,0.434,3.546,1.834,4.659     c7.082,5.625,10.464,14.531,9.165,23.258c-0.263,1.768,0.437,3.54,1.835,4.651c7.058,5.607,10.472,14.517,9.156,23.249     c-0.267,1.771,0.435,3.551,1.839,4.664c1.939,1.536,3.622,3.363,5.018,5.392h-179.15c1.396-2.027,3.08-3.854,5.02-5.395     c1.401-1.113,2.101-2.891,1.834-4.66c-1.32-8.752,2.14-17.682,9.161-23.245c1.404-1.113,2.105-2.893,1.839-4.664     c-1.335-8.858,2.196-17.72,9.156-23.25c1.398-1.111,2.098-2.883,1.835-4.649c-1.354-9.12,2.394-17.906,9.159-23.266     c1.405-1.112,2.106-2.892,1.84-4.663c-0.689-4.572-0.014-9.322,1.474-12.892C209.359,175.465,212.016,171.886,215.426,169.184z      M65.453,280.828c1.401-1.113,2.101-2.891,1.834-4.66c-1.32-8.752,2.14-17.682,9.161-23.245c1.404-1.113,2.105-2.893,1.839-4.664     c-1.335-8.858,2.196-17.72,9.156-23.25c1.398-1.111,2.098-2.883,1.835-4.649c-1.34-9.028,2.305-17.82,9.165-23.27     c1.401-1.113,2.101-2.891,1.834-4.66c-1.35-8.959,2.284-17.797,9.161-23.246c1.404-1.113,2.105-2.893,1.839-4.664     c-3.011-19.981,18.097-35.428,36.405-25.791c1.458,0.767,3.2,0.77,4.658,0.001c18.366-9.665,39.417,5.837,36.408,25.79     c-0.267,1.77,0.433,3.547,1.834,4.66c3.014,2.395,5.432,5.46,7.063,8.932c-1.335,4.195-1.871,8.61-1.574,12.991     c-7.39,6.9-11.726,17.059-10.997,27.921c-7.67,7.184-11.709,17.417-10.994,27.91c-7.659,7.161-11.713,17.435-10.999,27.912     c-3.425,3.206-6.169,7.083-8.071,11.378c-9.876,0-85.325,0-94.577,0C61.829,284.196,63.513,282.369,65.453,280.828z      M107.399,296.223l6.666,20H19.609l-6.668-20C26.475,296.223,93.074,296.223,107.399,296.223z M94.863,376.222     c-32.194,0-60.748-19.988-71.866-49.999h94.402c0.369,0.647,8.422,32.284,42.024,49.999H94.863z M417.137,376.222h-64.559     c33.68-17.757,41.691-49.417,42.024-49.999h94.401C477.888,356.233,449.332,376.222,417.137,376.222z"/><path d="M392.463,239.759c1.951,1.953,5.119,1.953,7.07,0c1.953-1.952,1.953-5.118,0-7.07l-5-5c-1.951-1.953-5.119-1.953-7.07,0     c-1.953,1.952-1.953,5.118,0,7.07L392.463,239.759z"/><path d="M354.534,229.759l5-5c1.953-1.952,1.953-5.118,0-7.07c-1.951-1.953-5.119-1.953-7.07,0l-5,5     c-1.953,1.952-1.953,5.118,0,7.07C349.415,231.712,352.583,231.713,354.534,229.759z"/><path d="M372.463,194.76c0.976,0.977,2.256,1.465,3.535,1.465c4.407,0,6.701-5.371,3.535-8.535l-5-5     c-1.951-1.953-5.119-1.953-7.07,0c-1.953,1.952-1.953,5.118,0,7.07L372.463,194.76z"/><path d="M229.866,259.759l5-5c1.953-1.952,1.953-5.118,0-7.07c-1.951-1.953-5.119-1.953-7.07,0l-5,5     c-1.953,1.952-1.953,5.118,0,7.07C224.746,261.712,227.914,261.712,229.866,259.759z"/><path d="M267.795,227.689c-1.953,1.952-1.953,5.118,0,7.07l5,5c1.951,1.953,5.119,1.953,7.07,0c1.953-1.952,1.953-5.118,0-7.07     l-5-5C272.914,225.736,269.746,225.736,267.795,227.689z"/><path d="M239.866,209.76l5-5c1.953-1.952,1.953-5.118,0-7.07c-1.951-1.953-5.119-1.953-7.07,0l-5,5     c-1.953,1.952-1.953,5.118,0,7.07C234.746,211.713,237.914,211.713,239.866,209.76z"/><path d="M267.795,184.76c0.976,0.977,2.256,1.465,3.535,1.465c4.407,0,6.701-5.371,3.535-8.535l-5-5     c-1.951-1.953-5.119-1.953-7.07,0c-1.953,1.952-1.953,5.118,0,7.07L267.795,184.76z"/></g></g></g><g id="Layer_1"/></svg>