<?xml version="1.0" ?><!DOCTYPE svg  PUBLIC '-//W3C//DTD SVG 1.1//EN'  'http://www.w3.org/Graphics/SVG/1.1/DTD/svg11.dtd'><svg enable-background="new 0 0 50 50" height="50px" version="1.1" viewBox="0 0 50 50" width="50px" xml:space="preserve" xmlns="http://www.w3.org/2000/svg" xmlns:xlink="http://www.w3.org/1999/xlink"><g id="Layer_23"/><g id="Layer_22"/><g id="Layer_21"/><g id="Layer_20"/><g id="Layer_19"/><g id="Layer_18"/><g id="Layer_17"/><g id="Layer_16"/><g id="Layer_15"><path clip-rule="evenodd" d="M31.429,33.42c1.635-6.504,3.831-9.677,7.055-15.393   c1.116-1.978,1.245-3.403,1.413-5.591c0.714-2.459,0.46-3.67,0.322-5.737c-0.051-0.779,0.108-1.461,0.498-2.137L42.197,2l-3.465-2   l-1.414,2.449c-0.406,0.704-0.947,1.198-1.686,1.54c-1.921,0.888-3.102,1.327-4.899,3.157c-1.81,1.241-2.987,2.063-4.141,4.018   c-3.334,5.643-4.995,9.149-9.801,13.812c-5.206,5.051-12.301,13.009-7.268,20.506c1.743,2.596,4.655,4.28,7.776,4.492   C26.325,50.584,29.659,40.448,31.429,33.42 M32.507,9.468c1.668,1.298,2.53,1.808,4.491,2.596   c-0.132,1.689-0.185,3.004-1.049,4.537c-3.362,5.961-5.641,9.308-7.352,16.111c-1.358,5.39-3.998,14.831-11.103,14.349   c-2.223-0.15-4.305-1.35-5.548-3.2c-3.968-5.91,2.895-12.929,6.879-16.795c5.045-4.896,6.791-8.514,10.28-14.418   C30.005,11.125,31.104,10.43,32.507,9.468z" fill-rule="evenodd"/></g><g id="Layer_14"/><g id="Layer_13"/><g id="Layer_12"/><g id="Layer_11"/><g id="Layer_10"/><g id="Layer_9"/><g id="Layer_8"/><g id="Layer_7"/><g id="Layer_6"/><g id="Layer_5"/><g id="Layer_4"/><g id="Layer_3"/><g id="Layer_2"/></svg>